<svg width="31" height="54" viewBox="0 0 31 54" fill="none" xmlns="http://www.w3.org/2000/svg">
<path fill-rule="evenodd" clip-rule="evenodd" d="M0.147111 51.3212C0.278263 51.7181 0.634277 52.3304 0.973486 52.7427C1.29334 53.1312 2.15683 53.6792 2.69293 53.8337C3.74151 54.136 4.67425 54.0296 5.73751 53.4863C6.07406 53.3142 9.78983 49.6994 18.2576 41.3061C29.7848 29.8802 30.3139 29.3389 30.6495 28.6321C30.96 27.9779 31 27.7915 31 26.9972C31 26.2027 30.9601 26.0165 30.6493 25.3622C30.3137 24.6555 29.7841 24.114 18.3106 12.7416C11.7171 6.20647 6.11395 0.732227 5.85909 0.576538C4.52534 -0.237774 2.79408 -0.184925 1.61297 0.706177C0.110411 1.83967 -0.390051 3.59709 0.313682 5.26812C0.533545 5.79025 1.62254 6.90571 11.2042 16.4229L21.8504 26.9977L11.2038 37.5718C-0.671181 49.3661 0.0840338 48.5195 0.0308497 50.0975C0.0156391 50.5493 0.0655261 51.0741 0.147111 51.3212Z" fill="#353434"/>
</svg>
