<svg width="309" height="309" viewBox="0 0 309 309" fill="none" xmlns="http://www.w3.org/2000/svg">
<path fill-rule="evenodd" clip-rule="evenodd" d="M141.801 0.121212C132.017 1.28747 128.624 1.78747 123.357 2.84067C63.2865 14.8521 14.7926 63.3363 2.77867 123.395C0.458979 134.99 0 140.136 0 154.531C0 168.927 0.458979 174.073 2.77867 185.668C14.7926 245.726 63.2865 294.21 123.357 306.222C134.954 308.541 140.102 309 154.5 309C168.898 309 174.046 308.541 185.643 306.222C245.713 294.21 294.207 245.726 306.221 185.668C308.541 174.073 309 168.927 309 154.531C309 140.136 308.541 134.99 306.221 123.395C294.404 64.3187 247.443 16.5045 188.364 3.39508C177.708 1.03052 170.605 0.27236 157.221 0.0698216C149.904 -0.0408189 142.965 -0.0172398 141.801 0.121212ZM174.153 10.3014C206.632 14.9767 234.419 28.8134 257.331 51.7214C280.674 75.0593 294.518 103.325 299.098 136.998C300.105 144.397 300.105 164.665 299.098 172.064C294.518 205.738 280.674 234.003 257.331 257.341C233.988 280.68 205.717 294.521 172.037 299.1C164.636 300.106 144.364 300.106 136.963 299.1C103.283 294.521 75.0119 280.68 51.6693 257.341C28.3261 234.003 14.4823 205.738 9.90161 172.064C8.89537 164.665 8.89537 144.397 9.90161 136.998C14.4823 103.325 28.3261 75.0593 51.6693 51.7214C68.3262 35.0673 86.8698 23.5976 108.844 16.357C120.092 12.6502 130.059 10.6786 145.127 9.17862C149.72 8.72155 168.124 9.43316 174.153 10.3014ZM142.103 29.4131C95.0825 34.0032 53.7985 65.5787 37.0116 109.791C21.4553 150.764 28.4736 197.523 55.3139 231.722C59.3395 236.851 61.3472 238.176 63.7267 237.271C67.7995 235.723 67.7656 232.668 63.6149 227.296C51.2763 211.326 43.9247 195.412 40.3043 176.835C38.706 168.635 38.3601 164.588 38.3178 153.624C38.1642 113.786 59.1472 76.5829 93.8634 55.1404C111.497 44.2493 132.717 38.2922 153.593 38.3726C164.559 38.4149 168.607 38.7608 176.809 40.3587C195.389 43.9784 211.306 51.3284 227.279 63.6646C231.838 67.1851 233.866 67.6416 236.022 65.6325C237.511 64.2462 237.81 61.0189 236.59 59.5128C235.192 57.7861 227.181 51.7831 221.502 48.2063C198.032 33.4222 169.707 26.7185 142.103 29.4131ZM151.619 49.3297C149.807 51.0165 149.548 53.1271 149.77 64.3743C149.958 73.89 150.014 74.2697 151.392 75.3846C152.177 76.0194 153.576 76.5388 154.5 76.5388C155.424 76.5388 156.823 76.0194 157.608 75.3846C158.986 74.2697 159.042 73.89 159.23 64.3743C159.337 58.9536 159.256 53.6223 159.051 52.5273C158.307 48.5612 154.296 46.8357 151.619 49.3297ZM100.072 63.6815C98.3703 65.8447 98.6968 67.2843 102.282 73.4166C104.625 77.4251 105.542 78.4662 107.219 79.0194C108.985 79.6022 109.506 79.5303 110.875 78.5122C113.453 76.5962 113.301 73.9481 110.305 68.6337C107.253 63.2184 106.005 62.0285 103.379 62.0285C101.913 62.0285 101.022 62.4741 100.072 63.6815ZM202.42 63.0866C201.763 63.6688 200.086 66.1645 198.695 68.6337C195.699 73.9481 195.547 76.5962 198.125 78.5122C199.494 79.5303 200.015 79.6022 201.781 79.0194C203.458 78.4662 204.375 77.4251 206.718 73.4166C210.303 67.2843 210.63 65.8447 208.928 63.6815C207.382 61.7166 204.288 61.4336 202.42 63.0866ZM243.417 73.0255C241.407 75.1815 241.864 77.2087 245.385 81.7667C257.724 97.7364 265.075 113.651 268.696 132.227C270.294 140.427 270.64 144.474 270.682 155.438C270.836 195.277 249.853 232.48 215.137 253.922C197.503 264.813 176.283 270.77 155.407 270.69C144.441 270.648 140.393 270.302 132.191 268.704C113.611 265.084 97.6936 257.734 81.7207 245.398C77.1617 241.877 75.1341 241.421 72.9777 243.43C71.4895 244.816 71.1901 248.044 72.4099 249.55C73.7384 251.19 81.4564 256.998 87.0742 260.585C120.222 281.751 162.275 286.028 199.249 271.996C232.389 259.419 259.408 232.405 271.988 199.271C285.989 162.395 281.849 120.872 260.846 87.543C257.269 81.8652 251.265 73.8556 249.538 72.4578C248.031 71.2383 244.803 71.5376 243.417 73.0255ZM63.6318 100.114C62.4242 101.064 61.9785 101.955 61.9785 103.42C61.9785 106.042 63.1692 107.295 68.5324 110.315C73.8775 113.325 76.4203 113.562 78.2617 111.221C80.7307 108.083 79.3399 105.748 72.737 101.941C67.1839 98.7406 65.7459 98.4522 63.6318 100.114ZM240.067 99.8616C232.473 103.82 229.485 106.282 229.485 108.582C229.485 110.605 231.847 112.814 234.011 112.814C236.185 112.814 244.121 108.702 245.963 106.621C247.592 104.781 247.334 101.66 245.428 100.162C243.524 98.6639 242.478 98.6058 240.067 99.8616ZM51.1487 150.334C46.5044 152.253 47.3958 158.129 52.4754 159.081C53.5705 159.286 58.9029 159.367 64.3248 159.26C73.8424 159.072 74.2222 159.017 75.3373 157.638C76.8116 155.815 76.8116 153.247 75.3367 151.424C74.2095 150.031 73.9271 149.994 63.3935 149.864C57.2799 149.789 51.9741 149.993 51.1487 150.334ZM234.937 150.472C234.111 150.89 233.174 151.974 232.855 152.881C232.084 155.072 233.013 157.617 234.937 158.591C236.811 159.539 255.247 159.659 257.666 158.74C262.024 157.083 262.024 151.979 257.666 150.323C255.247 149.403 236.811 149.524 234.937 150.472ZM68.0293 199.01C62.8414 202.041 61.9785 202.986 61.9785 205.641C61.9785 208.064 63.8374 209.8 66.3929 209.763C68.689 209.731 76.5262 205.326 78.301 203.07C79.843 201.11 79.834 199.839 78.2617 197.841C76.381 195.45 73.5733 195.771 68.0293 199.01ZM230.738 197.841C229.166 199.839 229.157 201.11 230.699 203.07C232.474 205.326 240.311 209.731 242.607 209.763C245.186 209.8 247.021 208.066 247.021 205.593C247.021 203.022 245.809 201.755 240.468 198.748C235.122 195.737 232.58 195.5 230.738 197.841ZM105.951 230.715C104.191 232.099 99.5483 239.847 99.082 242.177C98.6134 244.518 100.84 247.034 103.379 247.034C106.001 247.034 107.254 245.844 110.275 240.481C113.286 235.137 113.523 232.595 111.181 230.754C109.183 229.182 107.912 229.173 105.951 230.715ZM197.819 230.754C195.477 232.595 195.714 235.137 198.725 240.481C201.746 245.844 202.999 247.034 205.621 247.034C208.16 247.034 210.387 244.518 209.918 242.177C209.452 239.847 204.809 232.099 203.049 230.715C201.088 229.173 199.817 229.182 197.819 230.754ZM151.392 233.678C150.014 234.793 149.958 235.173 149.77 244.688C149.548 255.935 149.807 258.046 151.619 259.733C154.296 262.227 158.307 260.501 159.051 256.535C159.256 255.44 159.337 250.109 159.23 244.688C159.042 235.173 158.986 234.793 157.608 233.678C156.823 233.043 155.424 232.524 154.5 232.524C153.576 232.524 152.177 233.043 151.392 233.678Z" fill="#EDE6DE"/>
</svg>
