<svg width="0" height="0" class="hidden">
  <symbol  xmlns="http://www.w3.org/2000/svg" viewBox="0 0 19 19" id="instagram">
    <path d="M13.4421 4.45757C13.4421 3.90528 13.8898 3.45757 14.4421 3.45757C14.9944 3.45757 15.4421 3.90528 15.4421 4.45757C15.4421 5.00985 14.9944 5.45757 14.4421 5.45757C13.8898 5.45757 13.4421 5.00985 13.4421 4.45757Z" ></path>
    <path fill-rule="evenodd" clip-rule="evenodd" d="M9.44208 4.70757C6.81873 4.70757 4.69208 6.83421 4.69208 9.45757C4.69208 12.0809 6.81873 14.2076 9.44208 14.2076C12.0654 14.2076 14.1921 12.0809 14.1921 9.45757C14.1921 6.83421 12.0654 4.70757 9.44208 4.70757ZM6.19208 9.45757C6.19208 7.66264 7.64715 6.20757 9.44208 6.20757C11.237 6.20757 12.6921 7.66264 12.6921 9.45757C12.6921 11.2525 11.237 12.7076 9.44208 12.7076C7.64715 12.7076 6.19208 11.2525 6.19208 9.45757Z" ></path>
    <path fill-rule="evenodd" clip-rule="evenodd" d="M14.7003 0.290581C11.2338 -0.0968602 7.65042 -0.0968602 4.18385 0.290581C2.17179 0.515458 0.547457 2.10047 0.310903 4.123C-0.103634 7.6673 -0.103635 11.2478 0.310903 14.7921C0.547457 16.8147 2.17179 18.3997 4.18385 18.6245C7.65042 19.012 11.2338 19.012 14.7003 18.6245C16.7124 18.3997 18.3367 16.8147 18.5733 14.7921C18.9878 11.2478 18.9878 7.66729 18.5733 4.123C18.3367 2.10047 16.7124 0.515458 14.7003 0.290581ZM4.35046 1.7813C7.7063 1.40623 11.1779 1.40623 14.5337 1.7813C15.8638 1.92996 16.9293 2.97957 17.0834 4.29725C17.4844 7.72577 17.4844 11.1894 17.0834 14.6179C16.9293 15.9356 15.8638 16.9852 14.5337 17.1338C11.1779 17.5089 7.7063 17.5089 4.35046 17.1338C3.02035 16.9852 1.95486 15.9356 1.80075 14.6179C1.39975 11.1894 1.39975 7.72577 1.80075 4.29725C1.95486 2.97957 3.02035 1.92996 4.35046 1.7813Z" ></path>
  </symbol>
  <symbol  xmlns="http://www.w3.org/2000/svg" viewBox="0 0 22 18" id="telegram">
    <path fill-rule="evenodd" clip-rule="evenodd" d="M20.0861 0.0318209C20.0016 0.0524745 19.3531 0.283954 18.645 0.546205C17.9369 0.808457 13.6697 2.38525 9.16239 4.05025C4.65508 5.7152 0.875002 7.1256 0.76225 7.18448C0.0867231 7.53722 -0.166659 8.10473 0.110771 8.6436C0.361614 9.13088 0.653799 9.25672 3.07521 9.92059C4.13993 10.2125 5.0256 10.4643 5.04341 10.4802C5.06122 10.4961 5.55645 11.8385 6.14392 13.4634C6.73139 15.0882 7.25312 16.4948 7.30332 16.5891C7.44972 16.8643 7.79968 17.203 8.09539 17.3559C8.32915 17.4767 8.41799 17.4984 8.73947 17.5135C9.18506 17.5344 9.47135 17.461 9.82604 17.2349C9.95626 17.1518 10.6243 16.5827 11.3106 15.9702L12.5584 14.8564L14.3772 16.2766C16.5357 17.9622 16.5992 18 17.2715 18C17.6441 18 17.7333 17.9856 17.9383 17.8925C18.3535 17.704 18.7503 17.2225 18.8793 16.7508C18.9044 16.6592 19.6157 13.2957 20.46 9.27633C21.9007 2.41786 21.9954 1.94029 21.9993 1.51039C22.0032 1.08878 21.9937 1.03165 21.8794 0.792217C21.7365 0.492614 21.4697 0.233027 21.1722 0.104109C20.947 0.00650347 20.3515 -0.0331382 20.0861 0.0318209ZM20.7084 1.37131C20.7397 1.45809 20.4096 3.10234 19.1871 8.94987C18.2456 13.4534 17.5938 16.4794 17.545 16.5731C17.4395 16.7757 17.2988 16.8119 17.0618 16.6974C16.9217 16.6298 10.9029 11.9737 10.6747 11.7565C10.6265 11.7105 11.1769 11.1257 13.9872 8.23711C16.1614 6.00218 17.3853 4.71358 17.436 4.60598C17.6351 4.18271 17.2348 3.67557 16.7605 3.75006C16.6858 3.7618 15.386 4.38429 13.8721 5.13332C12.3584 5.88234 10.1518 6.97332 8.9688 7.55766C7.78578 8.14204 6.52274 8.76807 6.16207 8.94883L5.50625 9.27745L3.59169 8.74633C2.53867 8.45422 1.67709 8.20496 1.67709 8.19239C1.67709 8.17981 3.51129 7.49225 5.75314 6.66439C7.99494 5.83658 12.1425 4.30325 14.9699 3.25704C17.7974 2.21078 20.1881 1.32975 20.2828 1.29915C20.5342 1.21782 20.6607 1.23927 20.7084 1.37131ZM13.4807 6.91324C12.3839 8.0197 9.17009 11.3483 9.10702 11.443C9.06473 11.5065 8.83729 12.3145 8.60151 13.2385C8.36576 14.1626 8.15837 14.9518 8.14064 14.9923C8.11862 15.0427 7.83676 14.3141 7.24804 12.6848C6.77484 11.3752 6.38767 10.2929 6.38767 10.2797C6.38767 10.2591 13.7128 6.61659 13.7619 6.61276C13.7718 6.61197 13.6453 6.74717 13.4807 6.91324ZM10.6896 13.3994C10.9971 13.6364 11.311 13.8819 11.3871 13.945L11.5254 14.0598L10.4886 14.9859C9.41775 15.9425 9.16987 16.156 9.21272 16.0845C9.22644 16.0616 9.41641 15.3349 9.63486 14.4696C9.91987 13.3404 10.0459 12.9065 10.0811 12.9324C10.1082 12.9524 10.382 13.1625 10.6896 13.3994Z" ></path>
  </symbol>
  <symbol  xmlns="http://www.w3.org/2000/svg" viewBox="0 0 24 24" id="phone">
    <path d="M17.45 22.75C16.32 22.75 15.13 22.48 13.9 21.96C12.7 21.45 11.49 20.75 10.31 19.9C9.14 19.04 8.01 18.08 6.94 17.03C5.88 15.96 4.92 14.83 4.07 13.67C3.21 12.47 2.52 11.27 2.03 10.11C1.51 8.87 1.25 7.67 1.25 6.54C1.25 5.76 1.39 5.02 1.66 4.33C1.94 3.62 2.39 2.96 3 2.39C3.77 1.63 4.65 1.25 5.59 1.25C5.98 1.25 6.38 1.34 6.72 1.5C7.11 1.68 7.44 1.95 7.68 2.31L10 5.58C10.21 5.87 10.37 6.15 10.48 6.43C10.61 6.73 10.68 7.03 10.68 7.32C10.68 7.7 10.57 8.07 10.36 8.42C10.21 8.69 9.98 8.98 9.69 9.27L9.01 9.98C9.02 10.01 9.03 10.03 9.04 10.05C9.16 10.26 9.4 10.62 9.86 11.16C10.35 11.72 10.81 12.23 11.27 12.7C11.86 13.28 12.35 13.74 12.81 14.12C13.38 14.6 13.75 14.84 13.97 14.95L13.95 15L14.68 14.28C14.99 13.97 15.29 13.74 15.58 13.59C16.13 13.25 16.83 13.19 17.53 13.48C17.79 13.59 18.07 13.74 18.37 13.95L21.69 16.31C22.06 16.56 22.33 16.88 22.49 17.26C22.64 17.64 22.71 17.99 22.71 18.34C22.71 18.82 22.6 19.3 22.39 19.75C22.18 20.2 21.92 20.59 21.59 20.95C21.02 21.58 20.4 22.03 19.68 22.32C18.99 22.6 18.24 22.75 17.45 22.75ZM5.59 2.75C5.04 2.75 4.53 2.99 4.04 3.47C3.58 3.9 3.26 4.37 3.06 4.88C2.85 5.4 2.75 5.95 2.75 6.54C2.75 7.47 2.97 8.48 3.41 9.52C3.86 10.58 4.49 11.68 5.29 12.78C6.09 13.88 7 14.95 8 15.96C9 16.95 10.08 17.87 11.19 18.68C12.27 19.47 13.38 20.11 14.48 20.57C16.19 21.3 17.79 21.47 19.11 20.92C19.62 20.71 20.07 20.39 20.48 19.93C20.71 19.68 20.89 19.41 21.04 19.09C21.16 18.84 21.22 18.58 21.22 18.32C21.22 18.16 21.19 18 21.11 17.82C21.08 17.76 21.02 17.65 20.83 17.52L17.51 15.16C17.31 15.02 17.13 14.92 16.96 14.85C16.74 14.76 16.65 14.67 16.31 14.88C16.11 14.98 15.93 15.13 15.73 15.33L14.97 16.08C14.58 16.46 13.98 16.55 13.52 16.38L13.25 16.26C12.84 16.04 12.36 15.7 11.83 15.25C11.35 14.84 10.83 14.36 10.2 13.74C9.71 13.24 9.22 12.71 8.71 12.12C8.24 11.57 7.9 11.1 7.69 10.71L7.57 10.41C7.51 10.18 7.49 10.05 7.49 9.91C7.49 9.55 7.62 9.23 7.87 8.98L8.62 8.2C8.82 8 8.97 7.81 9.07 7.64C9.15 7.51 9.18 7.4 9.18 7.3C9.18 7.22 9.15 7.1 9.1 6.98C9.03 6.82 8.92 6.64 8.78 6.45L6.46 3.17C6.36 3.03 6.24 2.93 6.09 2.86C5.93 2.79 5.76 2.75 5.59 2.75ZM13.95 15.01L13.79 15.69L14.06 14.99C14.01 14.98 13.97 14.99 13.95 15.01Z" ></path>
    <path d="M18.5 9.75C18.09 9.75 17.75 9.41 17.75 9C17.75 8.64 17.39 7.89 16.79 7.25C16.2 6.62 15.55 6.25 15 6.25C14.59 6.25 14.25 5.91 14.25 5.5C14.25 5.09 14.59 4.75 15 4.75C15.97 4.75 16.99 5.27 17.88 6.22C18.71 7.11 19.25 8.2 19.25 9C19.25 9.41 18.91 9.75 18.5 9.75Z" ></path>
    <path d="M22 9.75C21.59 9.75 21.25 9.41 21.25 9C21.25 5.55 18.45 2.75 15 2.75C14.59 2.75 14.25 2.41 14.25 2C14.25 1.59 14.59 1.25 15 1.25C19.27 1.25 22.75 4.73 22.75 9C22.75 9.41 22.41 9.75 22 9.75Z" ></path>
  </symbol>
  <symbol  xmlns="http://www.w3.org/2000/svg" viewBox="0 0 24 24" id="location">
    <path d="M11.9999 14.1699C9.86988 14.1699 8.12988 12.4399 8.12988 10.2999C8.12988 8.15994 9.86988 6.43994 11.9999 6.43994C14.1299 6.43994 15.8699 8.16994 15.8699 10.3099C15.8699 12.4499 14.1299 14.1699 11.9999 14.1699ZM11.9999 7.93994C10.6999 7.93994 9.62988 8.99994 9.62988 10.3099C9.62988 11.6199 10.6899 12.6799 11.9999 12.6799C13.3099 12.6799 14.3699 11.6199 14.3699 10.3099C14.3699 8.99994 13.2999 7.93994 11.9999 7.93994Z" ></path>
    <path d="M12.0002 22.76C10.5202 22.76 9.03018 22.2 7.87018 21.09C4.92018 18.25 1.66018 13.72 2.89018 8.33C4.00018 3.44 8.27018 1.25 12.0002 1.25C12.0002 1.25 12.0002 1.25 12.0102 1.25C15.7402 1.25 20.0102 3.44 21.1202 8.34C22.3402 13.73 19.0802 18.25 16.1302 21.09C14.9702 22.2 13.4802 22.76 12.0002 22.76ZM12.0002 2.75C9.09018 2.75 5.35018 4.3 4.36018 8.66C3.28018 13.37 6.24018 17.43 8.92018 20C10.6502 21.67 13.3602 21.67 15.0902 20C17.7602 17.43 20.7202 13.37 19.6602 8.66C18.6602 4.3 14.9102 2.75 12.0002 2.75Z" ></path>
  </symbol>
  <symbol  xmlns="http://www.w3.org/2000/svg" viewBox="0 0 24 24" id="mail">
    <path d="M17 21.25H7C3.35 21.25 1.25 19.15 1.25 15.5V8.5C1.25 4.85 3.35 2.75 7 2.75H17C20.65 2.75 22.75 4.85 22.75 8.5V15.5C22.75 19.15 20.65 21.25 17 21.25ZM7 4.25C4.14 4.25 2.75 5.64 2.75 8.5V15.5C2.75 18.36 4.14 19.75 7 19.75H17C19.86 19.75 21.25 18.36 21.25 15.5V8.5C21.25 5.64 19.86 4.25 17 4.25H7Z" ></path>
    <path d="M11.9998 12.87C11.1598 12.87 10.3098 12.61 9.65978 12.08L6.52978 9.57997C6.20978 9.31997 6.14978 8.84997 6.40978 8.52997C6.66978 8.20997 7.13978 8.14997 7.45978 8.40997L10.5898 10.91C11.3498 11.52 12.6398 11.52 13.3998 10.91L16.5298 8.40997C16.8498 8.14997 17.3298 8.19997 17.5798 8.52997C17.8398 8.84997 17.7898 9.32997 17.4598 9.57997L14.3298 12.08C13.6898 12.61 12.8398 12.87 11.9998 12.87Z" ></path>
  </symbol>
  <symbol  xmlns="http://www.w3.org/2000/svg" viewBox="0 0 12 20" id="facebook">
    <path fill-rule="evenodd" clip-rule="evenodd" d="M4.23769 1.53769C5.22225 0.553123 6.55761 0 7.95 0H10.65C11.0642 0 11.4 0.335786 11.4 0.75V4.35C11.4 4.76421 11.0642 5.1 10.65 5.1H7.95C7.91022 5.1 7.87206 5.1158 7.84393 5.14393C7.8158 5.17206 7.8 5.21022 7.8 5.25V7.2H10.65C10.881 7.2 11.099 7.3064 11.2412 7.48844C11.3833 7.67048 11.4336 7.90785 11.3776 8.1319L10.4776 11.7319C10.3941 12.0658 10.0942 12.3 9.75 12.3H7.8V18.75C7.8 19.1642 7.46421 19.5 7.05 19.5H3.45C3.03579 19.5 2.7 19.1642 2.7 18.75V12.3H0.75C0.335786 12.3 0 11.9642 0 11.55V7.95C0 7.53579 0.335786 7.2 0.75 7.2H2.7V5.25C2.7 3.85761 3.25312 2.52226 4.23769 1.53769ZM7.95 1.5C6.95544 1.5 6.00161 1.89509 5.29835 2.59835C4.59509 3.30161 4.2 4.25544 4.2 5.25V7.95C4.2 8.36421 3.86421 8.7 3.45 8.7H1.5V10.8H3.45C3.86421 10.8 4.2 11.1358 4.2 11.55V18H6.3V11.55C6.3 11.1358 6.63579 10.8 7.05 10.8H9.16442L9.68942 8.7H7.05C6.63579 8.7 6.3 8.36421 6.3 7.95V5.25C6.3 4.81239 6.47384 4.39271 6.78327 4.08327C7.09271 3.77384 7.51239 3.6 7.95 3.6H9.9V1.5H7.95Z" ></path>
  </symbol>
  <symbol  xmlns="http://www.w3.org/2000/svg" viewBox="0 0 21 21" id="linkedin">
    <path fill-rule="evenodd" clip-rule="evenodd" d="M2.75 0C1.23122 0 0 1.23122 0 2.75C0 4.26878 1.23122 5.5 2.75 5.5C4.26878 5.5 5.5 4.26878 5.5 2.75C5.5 1.23122 4.26878 0 2.75 0ZM1.5 2.75C1.5 2.05964 2.05964 1.5 2.75 1.5C3.44036 1.5 4 2.05964 4 2.75C4 3.44036 3.44036 4 2.75 4C2.05964 4 1.5 3.44036 1.5 2.75Z" ></path>
    <path fill-rule="evenodd" clip-rule="evenodd" d="M0 6.75C0 6.33579 0.335786 6 0.75 6H4.75C5.16421 6 5.5 6.33579 5.5 6.75V19.75C5.5 20.1642 5.16421 20.5 4.75 20.5H0.75C0.335786 20.5 0 20.1642 0 19.75V6.75ZM1.5 7.5V19H4V7.5H1.5Z" ></path>
    <path fill-rule="evenodd" clip-rule="evenodd" d="M7 6.75C7 6.33579 7.33579 6 7.75 6H11.75C12.1642 6 12.5 6.33579 12.5 6.75V7.18402L12.9353 6.99748C13.6836 6.67676 14.4839 6.47565 15.2933 6.40207C18.0682 6.1498 20.5 8.33038 20.5 11.1302V19.75C20.5 20.1642 20.1642 20.5 19.75 20.5H15.75C15.3358 20.5 15 20.1642 15 19.75V12.75C15 12.4185 14.8683 12.1005 14.6339 11.8661C14.3995 11.6317 14.0815 11.5 13.75 11.5C13.4185 11.5 13.1005 11.6317 12.8661 11.8661C12.6317 12.1005 12.5 12.4185 12.5 12.75V19.75C12.5 20.1642 12.1642 20.5 11.75 20.5H7.75C7.33579 20.5 7 20.1642 7 19.75V6.75ZM8.5 7.5V19H11V12.75C11 12.0207 11.2897 11.3212 11.8055 10.8055C12.3212 10.2897 13.0207 10 13.75 10C14.4793 10 15.1788 10.2897 15.6945 10.8055C16.2103 11.3212 16.5 12.0207 16.5 12.75V19H19V11.1302C19 9.22587 17.339 7.72227 15.4291 7.89591C14.775 7.95536 14.1284 8.11807 13.5262 8.3762L12.0454 9.01079C11.8137 9.1101 11.5476 9.08634 11.3371 8.94756C11.1267 8.80878 11 8.57354 11 8.32143V7.5H8.5Z" ></path>
  </symbol>
    <symbol  xmlns="http://www.w3.org/2000/svg" viewBox="0 0 31 54" id="arrow">
    <path fill-rule="evenodd" clip-rule="evenodd" d="M0.147111 51.3212C0.278263 51.7181 0.634277 52.3304 0.973486 52.7427C1.29334 53.1312 2.15683 53.6792 2.69293 53.8337C3.74151 54.136 4.67425 54.0296 5.73751 53.4863C6.07406 53.3142 9.78983 49.6994 18.2576 41.3061C29.7848 29.8802 30.3139 29.3389 30.6495 28.6321C30.96 27.9779 31 27.7915 31 26.9972C31 26.2027 30.9601 26.0165 30.6493 25.3622C30.3137 24.6555 29.7841 24.114 18.3106 12.7416C11.7171 6.20647 6.11395 0.732227 5.85909 0.576538C4.52534 -0.237774 2.79408 -0.184925 1.61297 0.706177C0.110411 1.83967 -0.390051 3.59709 0.313682 5.26812C0.533545 5.79025 1.62254 6.90571 11.2042 16.4229L21.8504 26.9977L11.2038 37.5718C-0.671181 49.3661 0.0840338 48.5195 0.0308497 50.0975C0.0156391 50.5493 0.0655261 51.0741 0.147111 51.3212Z"></path>
  </symbol>
    <symbol fill="none" xmlns="http://www.w3.org/2000/svg" viewBox="0 0 309 309" id="clock">
    <path fill-rule="evenodd" clip-rule="evenodd" d="M141.801 0.121212C132.017 1.28747 128.624 1.78747 123.357 2.84067C63.2865 14.8521 14.7926 63.3363 2.77867 123.395C0.458979 134.99 0 140.136 0 154.531C0 168.927 0.458979 174.073 2.77867 185.668C14.7926 245.726 63.2865 294.21 123.357 306.222C134.954 308.541 140.102 309 154.5 309C168.898 309 174.046 308.541 185.643 306.222C245.713 294.21 294.207 245.726 306.221 185.668C308.541 174.073 309 168.927 309 154.531C309 140.136 308.541 134.99 306.221 123.395C294.404 64.3187 247.443 16.5045 188.364 3.39508C177.708 1.03052 170.605 0.27236 157.221 0.0698216C149.904 -0.0408189 142.965 -0.0172398 141.801 0.121212ZM174.153 10.3014C206.632 14.9767 234.419 28.8134 257.331 51.7214C280.674 75.0593 294.518 103.325 299.098 136.998C300.105 144.397 300.105 164.665 299.098 172.064C294.518 205.738 280.674 234.003 257.331 257.341C233.988 280.68 205.717 294.521 172.037 299.1C164.636 300.106 144.364 300.106 136.963 299.1C103.283 294.521 75.0119 280.68 51.6693 257.341C28.3261 234.003 14.4823 205.738 9.90161 172.064C8.89537 164.665 8.89537 144.397 9.90161 136.998C14.4823 103.325 28.3261 75.0593 51.6693 51.7214C68.3262 35.0673 86.8698 23.5976 108.844 16.357C120.092 12.6502 130.059 10.6786 145.127 9.17862C149.72 8.72155 168.124 9.43316 174.153 10.3014ZM142.103 29.4131C95.0825 34.0032 53.7985 65.5787 37.0116 109.791C21.4553 150.764 28.4736 197.523 55.3139 231.722C59.3395 236.851 61.3472 238.176 63.7267 237.271C67.7995 235.723 67.7656 232.668 63.6149 227.296C51.2763 211.326 43.9247 195.412 40.3043 176.835C38.706 168.635 38.3601 164.588 38.3178 153.624C38.1642 113.786 59.1472 76.5829 93.8634 55.1404C111.497 44.2493 132.717 38.2922 153.593 38.3726C164.559 38.4149 168.607 38.7608 176.809 40.3587C195.389 43.9784 211.306 51.3284 227.279 63.6646C231.838 67.1851 233.866 67.6416 236.022 65.6325C237.511 64.2462 237.81 61.0189 236.59 59.5128C235.192 57.7861 227.181 51.7831 221.502 48.2063C198.032 33.4222 169.707 26.7185 142.103 29.4131ZM151.619 49.3297C149.807 51.0165 149.548 53.1271 149.77 64.3743C149.958 73.89 150.014 74.2697 151.392 75.3846C152.177 76.0194 153.576 76.5388 154.5 76.5388C155.424 76.5388 156.823 76.0194 157.608 75.3846C158.986 74.2697 159.042 73.89 159.23 64.3743C159.337 58.9536 159.256 53.6223 159.051 52.5273C158.307 48.5612 154.296 46.8357 151.619 49.3297ZM100.072 63.6815C98.3703 65.8447 98.6968 67.2843 102.282 73.4166C104.625 77.4251 105.542 78.4662 107.219 79.0194C108.985 79.6022 109.506 79.5303 110.875 78.5122C113.453 76.5962 113.301 73.9481 110.305 68.6337C107.253 63.2184 106.005 62.0285 103.379 62.0285C101.913 62.0285 101.022 62.4741 100.072 63.6815ZM202.42 63.0866C201.763 63.6688 200.086 66.1645 198.695 68.6337C195.699 73.9481 195.547 76.5962 198.125 78.5122C199.494 79.5303 200.015 79.6022 201.781 79.0194C203.458 78.4662 204.375 77.4251 206.718 73.4166C210.303 67.2843 210.63 65.8447 208.928 63.6815C207.382 61.7166 204.288 61.4336 202.42 63.0866ZM243.417 73.0255C241.407 75.1815 241.864 77.2087 245.385 81.7667C257.724 97.7364 265.075 113.651 268.696 132.227C270.294 140.427 270.64 144.474 270.682 155.438C270.836 195.277 249.853 232.48 215.137 253.922C197.503 264.813 176.283 270.77 155.407 270.69C144.441 270.648 140.393 270.302 132.191 268.704C113.611 265.084 97.6936 257.734 81.7207 245.398C77.1617 241.877 75.1341 241.421 72.9777 243.43C71.4895 244.816 71.1901 248.044 72.4099 249.55C73.7384 251.19 81.4564 256.998 87.0742 260.585C120.222 281.751 162.275 286.028 199.249 271.996C232.389 259.419 259.408 232.405 271.988 199.271C285.989 162.395 281.849 120.872 260.846 87.543C257.269 81.8652 251.265 73.8556 249.538 72.4578C248.031 71.2383 244.803 71.5376 243.417 73.0255ZM63.6318 100.114C62.4242 101.064 61.9785 101.955 61.9785 103.42C61.9785 106.042 63.1692 107.295 68.5324 110.315C73.8775 113.325 76.4203 113.562 78.2617 111.221C80.7307 108.083 79.3399 105.748 72.737 101.941C67.1839 98.7406 65.7459 98.4522 63.6318 100.114ZM240.067 99.8616C232.473 103.82 229.485 106.282 229.485 108.582C229.485 110.605 231.847 112.814 234.011 112.814C236.185 112.814 244.121 108.702 245.963 106.621C247.592 104.781 247.334 101.66 245.428 100.162C243.524 98.6639 242.478 98.6058 240.067 99.8616ZM51.1487 150.334C46.5044 152.253 47.3958 158.129 52.4754 159.081C53.5705 159.286 58.9029 159.367 64.3248 159.26C73.8424 159.072 74.2222 159.017 75.3373 157.638C76.8116 155.815 76.8116 153.247 75.3367 151.424C74.2095 150.031 73.9271 149.994 63.3935 149.864C57.2799 149.789 51.9741 149.993 51.1487 150.334ZM234.937 150.472C234.111 150.89 233.174 151.974 232.855 152.881C232.084 155.072 233.013 157.617 234.937 158.591C236.811 159.539 255.247 159.659 257.666 158.74C262.024 157.083 262.024 151.979 257.666 150.323C255.247 149.403 236.811 149.524 234.937 150.472ZM68.0293 199.01C62.8414 202.041 61.9785 202.986 61.9785 205.641C61.9785 208.064 63.8374 209.8 66.3929 209.763C68.689 209.731 76.5262 205.326 78.301 203.07C79.843 201.11 79.834 199.839 78.2617 197.841C76.381 195.45 73.5733 195.771 68.0293 199.01ZM230.738 197.841C229.166 199.839 229.157 201.11 230.699 203.07C232.474 205.326 240.311 209.731 242.607 209.763C245.186 209.8 247.021 208.066 247.021 205.593C247.021 203.022 245.809 201.755 240.468 198.748C235.122 195.737 232.58 195.5 230.738 197.841ZM105.951 230.715C104.191 232.099 99.5483 239.847 99.082 242.177C98.6134 244.518 100.84 247.034 103.379 247.034C106.001 247.034 107.254 245.844 110.275 240.481C113.286 235.137 113.523 232.595 111.181 230.754C109.183 229.182 107.912 229.173 105.951 230.715ZM197.819 230.754C195.477 232.595 195.714 235.137 198.725 240.481C201.746 245.844 202.999 247.034 205.621 247.034C208.16 247.034 210.387 244.518 209.918 242.177C209.452 239.847 204.809 232.099 203.049 230.715C201.088 229.173 199.817 229.182 197.819 230.754ZM151.392 233.678C150.014 234.793 149.958 235.173 149.77 244.688C149.548 255.935 149.807 258.046 151.619 259.733C154.296 262.227 158.307 260.501 159.051 256.535C159.256 255.44 159.337 250.109 159.23 244.688C159.042 235.173 158.986 234.793 157.608 233.678C156.823 233.043 155.424 232.524 154.5 232.524C153.576 232.524 152.177 233.043 151.392 233.678Z" fill="#EDE6DE"></path>
  </symbol>
</svg>